M48
;Layer_Color=9474304
;FILE_FORMAT=2:3
INCH,LZ
;TYPE=PLATED
T1F00S00C0.028
T2F00S00C0.033
T3F00S00C0.035
T4F00S00C0.100
%
T01
X02599Y0013
X02825
X03088Y00138
Y00438
X02825Y0043
X02599
X03757Y00544
Y00844
Y01225
Y01525
X03088Y0146
Y01167
Y00867
X02632
X02419
X02206
Y01167
X02419
X02632
X02239Y0146
Y0176
X03088
X02036
Y0146
X00565
Y01192
Y00892
Y0176
X00357
Y0146
Y01192
X00159
Y00892
X00357
T02
X00575Y00082
X00704
Y00382
X00575
X00704Y00559
X0084
X00986
X01126
X01365Y00323
X01568
X01766
X0196
X01963Y00127
X01663
X0329Y00382
X03511
Y00682
Y00867
X0329Y00867
Y00682
Y01167
X03511Y01167
Y01412
X0329
Y01712
X03511
X02855Y01622
X02719Y01566
X02419
X02855Y01322
X02855Y01091
Y00791
X0196
Y00623
X01766
Y00791
X01568
Y00623
X01365
X01365Y00791
Y01091
Y01287
X01568
Y01091
X01766
X0196Y01091
X01766Y01287
Y01587
X01568
X01365
X01593Y01805
X01893
X00736Y01807
Y01507
Y01318
Y01018
X00704Y00859
X0084
X00986
X01126
T03
X00429Y00127
Y00227
Y00327
X00892Y0033
Y0023
Y0013
X01192
Y0023
Y0033
Y0043
X00892
X01385Y00127
X01485
X02099Y0013
Y0023
Y0033
Y0043
X02399
Y0033
Y0023
Y0013
X03349Y00113
X03449
X03549
X02835Y01785
X02735
X02542
X02442
X0146
X0136
X01188Y01737
Y01637
Y01537
Y01437
Y01337
Y01237
Y01137
X00888
Y01237
Y01337
Y01437
Y01537
Y01637
Y01737
X00102Y0158
Y0148
T04
X00072Y0007
X03863Y00083
X03858Y01892
X00074Y01897
M30
