G04*
G04 #@! TF.GenerationSoftware,Altium Limited,Altium Designer,22.6.1 (34)*
G04*
G04 Layer_Color=65535*
%FSLAX23Y23*%
%MOIN*%
G70*
G04*
G04 #@! TF.SameCoordinates,C87C71DA-0ECB-4DA1-9284-8B4E43F81947*
G04*
G04*
G04 #@! TF.FilePolarity,Positive*
G04*
G01*
G75*
%ADD10C,0.008*%
%ADD11C,0.010*%
D10*
X2224Y483D02*
G03*
X2274Y483I25J0D01*
G01*
X1013Y1835D02*
G03*
X1063Y1835I25J0D01*
G01*
X1017Y483D02*
G03*
X1067Y483I25J0D01*
G01*
X2353Y77D02*
Y483D01*
X2144Y77D02*
Y483D01*
Y77D02*
X2353D01*
X2274Y483D02*
X2353D01*
X2144D02*
X2224D01*
X2855Y1572D02*
Y1581D01*
Y1363D02*
Y1372D01*
Y1572D02*
X2885D01*
Y1372D02*
Y1572D01*
X2825Y1372D02*
X2885D01*
X2825D02*
Y1572D01*
X2855D01*
X1704Y127D02*
X1713D01*
X1913D02*
X1922D01*
X1713D02*
Y157D01*
X1913D01*
Y97D02*
Y157D01*
X1713Y97D02*
X1913D01*
X1713D02*
Y127D01*
X3299Y63D02*
Y163D01*
X3599D01*
Y63D02*
Y163D01*
X3299Y63D02*
X3599D01*
X2460Y1566D02*
X2469D01*
X2669D02*
X2678D01*
X2469D02*
Y1596D01*
X2669D01*
Y1536D02*
Y1596D01*
X2469Y1536D02*
X2669D01*
X2469D02*
Y1566D01*
X934Y1835D02*
X1013D01*
X1063D02*
X1143D01*
X934Y1039D02*
X1143D01*
X934D02*
Y1835D01*
X1143Y1039D02*
Y1835D01*
X2524Y505D02*
X2674D01*
Y55D02*
Y505D01*
X2524Y55D02*
X2674D01*
X2524D02*
Y505D01*
X3013Y513D02*
X3163D01*
Y63D02*
Y513D01*
X3013Y63D02*
X3163D01*
X3013D02*
Y513D01*
X2750Y505D02*
X2900D01*
Y55D02*
Y505D01*
X2750Y55D02*
X2900D01*
X2750D02*
Y505D01*
X1335Y573D02*
X1365D01*
X1335Y373D02*
Y573D01*
Y373D02*
X1395D01*
Y573D01*
X1365D02*
X1395D01*
X1365Y364D02*
Y373D01*
Y573D02*
Y582D01*
X1146Y77D02*
Y483D01*
X937Y77D02*
Y483D01*
Y77D02*
X1146D01*
X1067Y483D02*
X1146D01*
X937D02*
X1017D01*
X1096Y809D02*
X1126D01*
X1096Y609D02*
Y809D01*
Y609D02*
X1156D01*
Y809D01*
X1126D02*
X1156D01*
X1126Y600D02*
Y609D01*
Y809D02*
Y818D01*
X3481Y1117D02*
X3511D01*
X3481Y917D02*
Y1117D01*
Y917D02*
X3541D01*
Y1117D01*
X3511D02*
X3541D01*
X3511Y908D02*
Y917D01*
Y1117D02*
Y1126D01*
X3481Y632D02*
X3511D01*
X3481Y432D02*
Y632D01*
Y432D02*
X3541D01*
Y632D01*
X3511D02*
X3541D01*
X3511Y423D02*
Y432D01*
Y632D02*
Y641D01*
X3260Y1662D02*
X3290D01*
X3260Y1462D02*
Y1662D01*
Y1462D02*
X3320D01*
Y1662D01*
X3290D02*
X3320D01*
X3290Y1453D02*
Y1462D01*
Y1662D02*
Y1671D01*
X3260Y1117D02*
X3290D01*
X3260Y917D02*
Y1117D01*
Y917D02*
X3320D01*
Y1117D01*
X3290D02*
X3320D01*
X3290Y908D02*
Y917D01*
Y1117D02*
Y1126D01*
X1736Y1041D02*
X1766D01*
X1736Y841D02*
Y1041D01*
Y841D02*
X1796D01*
Y1041D01*
X1766D02*
X1796D01*
X1766Y832D02*
Y841D01*
Y1041D02*
Y1050D01*
X1538Y573D02*
X1568D01*
X1538Y373D02*
Y573D01*
Y373D02*
X1598D01*
Y573D01*
X1568D02*
X1598D01*
X1568Y364D02*
Y373D01*
Y573D02*
Y582D01*
X1538Y1041D02*
X1568D01*
X1538Y841D02*
Y1041D01*
Y841D02*
X1598D01*
Y1041D01*
X1568D02*
X1598D01*
X1568Y832D02*
Y841D01*
Y1041D02*
Y1050D01*
X1538Y1537D02*
X1568D01*
X1538Y1337D02*
Y1537D01*
Y1337D02*
X1598D01*
Y1537D01*
X1568D02*
X1598D01*
X1568Y1328D02*
Y1337D01*
Y1537D02*
Y1546D01*
X1930Y573D02*
X1960D01*
X1930Y373D02*
Y573D01*
Y373D02*
X1990D01*
Y573D01*
X1960D02*
X1990D01*
X1960Y364D02*
Y373D01*
Y573D02*
Y582D01*
X2825Y1041D02*
X2855D01*
X2825Y841D02*
Y1041D01*
Y841D02*
X2885D01*
Y1041D01*
X2855D02*
X2885D01*
X2855Y832D02*
Y841D01*
Y1041D02*
Y1050D01*
X3260Y632D02*
X3290D01*
X3260Y432D02*
Y632D01*
Y432D02*
X3320D01*
Y632D01*
X3290D02*
X3320D01*
X3290Y423D02*
Y432D01*
Y632D02*
Y641D01*
X3481Y1662D02*
X3511D01*
X3481Y1462D02*
Y1662D01*
Y1462D02*
X3541D01*
Y1662D01*
X3511D02*
X3541D01*
X3511Y1453D02*
Y1462D01*
Y1662D02*
Y1671D01*
X1930Y1041D02*
X1960D01*
X1930Y841D02*
Y1041D01*
Y841D02*
X1990D01*
Y1041D01*
X1960D02*
X1990D01*
X1960Y832D02*
Y841D01*
Y1041D02*
Y1050D01*
X1335Y1041D02*
X1365D01*
X1335Y841D02*
Y1041D01*
Y841D02*
X1395D01*
Y1041D01*
X1365D02*
X1395D01*
X1365Y832D02*
Y841D01*
Y1041D02*
Y1050D01*
X674Y332D02*
X704D01*
X674Y132D02*
Y332D01*
Y132D02*
X734D01*
Y332D01*
X704D02*
X734D01*
X704Y123D02*
Y132D01*
Y332D02*
Y341D01*
X1335Y1537D02*
X1365D01*
X1335Y1337D02*
Y1537D01*
Y1337D02*
X1395D01*
Y1537D01*
X1365D02*
X1395D01*
X1365Y1328D02*
Y1337D01*
Y1537D02*
Y1546D01*
X1736Y1537D02*
X1766D01*
X1736Y1337D02*
Y1537D01*
Y1337D02*
X1796D01*
Y1537D01*
X1766D02*
X1796D01*
X1766Y1328D02*
Y1337D01*
Y1537D02*
Y1546D01*
X956Y809D02*
X986D01*
X956Y609D02*
Y809D01*
Y609D02*
X1016D01*
Y809D01*
X986D02*
X1016D01*
X986Y600D02*
Y609D01*
Y809D02*
Y818D01*
X706Y1757D02*
X736D01*
X706Y1557D02*
Y1757D01*
Y1557D02*
X766D01*
Y1757D01*
X736D02*
X766D01*
X736Y1548D02*
Y1557D01*
Y1757D02*
Y1766D01*
X1736Y573D02*
X1766D01*
X1736Y373D02*
Y573D01*
Y373D02*
X1796D01*
Y573D01*
X1766D02*
X1796D01*
X1766Y364D02*
Y373D01*
Y573D02*
Y582D01*
X810Y809D02*
X840D01*
X810Y609D02*
Y809D01*
Y609D02*
X870D01*
Y809D01*
X840D02*
X870D01*
X840Y600D02*
Y609D01*
Y809D02*
Y818D01*
X1643Y1775D02*
Y1805D01*
Y1775D02*
X1843D01*
Y1835D01*
X1643D02*
X1843D01*
X1643Y1805D02*
Y1835D01*
X1843Y1805D02*
X1852D01*
X1634D02*
X1643D01*
X706Y1268D02*
X736D01*
X706Y1068D02*
Y1268D01*
Y1068D02*
X766D01*
Y1268D01*
X736D02*
X766D01*
X736Y1059D02*
Y1068D01*
Y1268D02*
Y1277D01*
X674Y809D02*
X704D01*
X674Y609D02*
Y809D01*
Y609D02*
X734D01*
Y809D01*
X704D02*
X734D01*
X704Y600D02*
Y609D01*
Y809D02*
Y818D01*
X545Y332D02*
X575D01*
X545Y132D02*
Y332D01*
Y132D02*
X605D01*
Y332D01*
X575D02*
X605D01*
X575Y123D02*
Y132D01*
Y332D02*
Y341D01*
X2685Y1735D02*
Y1835D01*
X2885D01*
Y1735D02*
Y1835D01*
X2685Y1735D02*
X2885D01*
X2592D02*
Y1835D01*
X2392Y1735D02*
X2592D01*
X2392D02*
Y1835D01*
X2592D01*
X1335Y77D02*
Y177D01*
X1535D01*
Y77D02*
Y177D01*
X1335Y77D02*
X1535D01*
X479D02*
Y377D01*
X379D02*
X479D01*
X379Y77D02*
Y377D01*
Y77D02*
X479D01*
X1310Y1735D02*
Y1835D01*
X1510D01*
Y1735D02*
Y1835D01*
X1310Y1735D02*
X1510D01*
X52Y1630D02*
X152D01*
Y1430D02*
Y1630D01*
X52Y1430D02*
X152D01*
X52D02*
Y1630D01*
X282Y1835D02*
X432D01*
Y1385D02*
Y1835D01*
X282Y1385D02*
X432D01*
X282D02*
Y1835D01*
X2557Y1242D02*
X2707D01*
Y792D02*
Y1242D01*
X2557Y792D02*
X2707D01*
X2557D02*
Y1242D01*
X3682Y919D02*
X3832D01*
Y469D02*
Y919D01*
X3682Y469D02*
X3832D01*
X3682D02*
Y919D01*
X3013Y1835D02*
X3163D01*
Y1385D02*
Y1835D01*
X3013Y1385D02*
X3163D01*
X3013D02*
Y1835D01*
Y1242D02*
X3163D01*
Y792D02*
Y1242D01*
X3013Y792D02*
X3163D01*
X3013D02*
Y1242D01*
X490Y1267D02*
X640D01*
Y817D02*
Y1267D01*
X490Y817D02*
X640D01*
X490D02*
Y1267D01*
X2344Y1242D02*
X2494D01*
Y792D02*
Y1242D01*
X2344Y792D02*
X2494D01*
X2344D02*
Y1242D01*
X1961Y1835D02*
X2111D01*
Y1385D02*
Y1835D01*
X1961Y1385D02*
X2111D01*
X1961D02*
Y1835D01*
X2164D02*
X2314D01*
Y1385D02*
Y1835D01*
X2164Y1385D02*
X2314D01*
X2164D02*
Y1835D01*
X282Y1267D02*
X432D01*
Y817D02*
Y1267D01*
X282Y817D02*
X432D01*
X282D02*
Y1267D01*
X2131Y1242D02*
X2281D01*
Y792D02*
Y1242D01*
X2131Y792D02*
X2281D01*
X2131D02*
Y1242D01*
X490Y1835D02*
X640D01*
Y1385D02*
Y1835D01*
X490Y1385D02*
X640D01*
X490D02*
Y1835D01*
X3682Y1600D02*
X3832D01*
Y1150D02*
Y1600D01*
X3682Y1150D02*
X3832D01*
X3682D02*
Y1600D01*
X84Y1267D02*
X234D01*
Y817D02*
Y1267D01*
X84Y817D02*
X234D01*
X84D02*
Y1267D01*
D11*
X2075Y577D02*
Y527D01*
X2085Y517D01*
X2105D01*
X2115Y527D01*
Y577D01*
X2135Y567D02*
X2145Y577D01*
X2165D01*
X2175Y567D01*
Y557D01*
X2165Y547D01*
X2155D01*
X2165D01*
X2175Y537D01*
Y527D01*
X2165Y517D01*
X2145D01*
X2135Y527D01*
X2796Y589D02*
X2786Y599D01*
X2766D01*
X2756Y589D01*
Y549D01*
X2766Y539D01*
X2786D01*
X2796Y549D01*
X2816Y539D02*
X2836D01*
X2826D01*
Y599D01*
X2816Y589D01*
X2866Y599D02*
X2906D01*
Y589D01*
X2866Y549D01*
Y539D01*
X3059Y597D02*
X3049Y607D01*
X3029D01*
X3019Y597D01*
Y557D01*
X3029Y547D01*
X3049D01*
X3059Y557D01*
X3079Y547D02*
X3099D01*
X3089D01*
Y607D01*
X3079Y597D01*
X3169Y607D02*
X3149Y597D01*
X3129Y577D01*
Y557D01*
X3139Y547D01*
X3159D01*
X3169Y557D01*
Y567D01*
X3159Y577D01*
X3129D01*
X2570Y589D02*
X2560Y599D01*
X2540D01*
X2530Y589D01*
Y549D01*
X2540Y539D01*
X2560D01*
X2570Y549D01*
X2590Y539D02*
X2610D01*
X2600D01*
Y599D01*
X2590Y589D01*
X2680Y599D02*
X2640D01*
Y569D01*
X2660Y579D01*
X2670D01*
X2680Y569D01*
Y549D01*
X2670Y539D01*
X2650D01*
X2640Y549D01*
X865Y1929D02*
Y1879D01*
X875Y1869D01*
X895D01*
X905Y1879D01*
Y1929D01*
X965Y1869D02*
X925D01*
X965Y1909D01*
Y1919D01*
X955Y1929D01*
X935D01*
X925Y1919D01*
X868Y577D02*
Y527D01*
X878Y517D01*
X898D01*
X908Y527D01*
Y577D01*
X928Y517D02*
X948D01*
X938D01*
Y577D01*
X928Y567D01*
X1102Y940D02*
Y1000D01*
X1132D01*
X1142Y990D01*
Y970D01*
X1132Y960D01*
X1102D01*
X1122D02*
X1142Y940D01*
X1182Y920D02*
X1192D01*
X1202Y930D01*
Y980D01*
X1172D01*
X1162Y970D01*
Y950D01*
X1172Y940D01*
X1202D01*
X1222D02*
X1242D01*
X1232D01*
Y1000D01*
X1222Y990D01*
X1641Y191D02*
Y251D01*
X1671D01*
X1681Y241D01*
Y221D01*
X1671Y211D01*
X1641D01*
X1661D02*
X1681Y191D01*
X1741D02*
X1701D01*
X1741Y231D01*
Y241D01*
X1731Y251D01*
X1711D01*
X1701Y241D01*
X1761Y201D02*
X1771Y191D01*
X1791D01*
X1801Y201D01*
Y241D01*
X1791Y251D01*
X1771D01*
X1761Y241D01*
Y231D01*
X1771Y221D01*
X1801D01*
X3487Y1229D02*
Y1289D01*
X3517D01*
X3527Y1279D01*
Y1259D01*
X3517Y1249D01*
X3487D01*
X3507D02*
X3527Y1229D01*
X3587D02*
X3547D01*
X3587Y1269D01*
Y1279D01*
X3577Y1289D01*
X3557D01*
X3547Y1279D01*
X3607D02*
X3617Y1289D01*
X3637D01*
X3647Y1279D01*
Y1269D01*
X3637Y1259D01*
X3647Y1249D01*
Y1239D01*
X3637Y1229D01*
X3617D01*
X3607Y1239D01*
Y1249D01*
X3617Y1259D01*
X3607Y1269D01*
Y1279D01*
X3617Y1259D02*
X3637D01*
X3487Y744D02*
Y804D01*
X3517D01*
X3527Y794D01*
Y774D01*
X3517Y764D01*
X3487D01*
X3507D02*
X3527Y744D01*
X3587D02*
X3547D01*
X3587Y784D01*
Y794D01*
X3577Y804D01*
X3557D01*
X3547Y794D01*
X3607Y804D02*
X3647D01*
Y794D01*
X3607Y754D01*
Y744D01*
X3267Y1774D02*
Y1834D01*
X3297D01*
X3307Y1824D01*
Y1804D01*
X3297Y1794D01*
X3267D01*
X3287D02*
X3307Y1774D01*
X3367D02*
X3327D01*
X3367Y1814D01*
Y1824D01*
X3357Y1834D01*
X3337D01*
X3327Y1824D01*
X3427Y1834D02*
X3407Y1824D01*
X3387Y1804D01*
Y1784D01*
X3397Y1774D01*
X3417D01*
X3427Y1784D01*
Y1794D01*
X3417Y1804D01*
X3387D01*
X3267Y1229D02*
Y1289D01*
X3297D01*
X3307Y1279D01*
Y1259D01*
X3297Y1249D01*
X3267D01*
X3287D02*
X3307Y1229D01*
X3367D02*
X3327D01*
X3367Y1269D01*
Y1279D01*
X3357Y1289D01*
X3337D01*
X3327Y1279D01*
X3427Y1289D02*
X3387D01*
Y1259D01*
X3407Y1269D01*
X3417D01*
X3427Y1259D01*
Y1239D01*
X3417Y1229D01*
X3397D01*
X3387Y1239D01*
X1742Y1153D02*
Y1213D01*
X1772D01*
X1782Y1203D01*
Y1183D01*
X1772Y1173D01*
X1742D01*
X1762D02*
X1782Y1153D01*
X1842D02*
X1802D01*
X1842Y1193D01*
Y1203D01*
X1832Y1213D01*
X1812D01*
X1802Y1203D01*
X1892Y1153D02*
Y1213D01*
X1862Y1183D01*
X1902D01*
X1544Y685D02*
Y745D01*
X1574D01*
X1584Y735D01*
Y715D01*
X1574Y705D01*
X1544D01*
X1564D02*
X1584Y685D01*
X1644D02*
X1604D01*
X1644Y725D01*
Y735D01*
X1634Y745D01*
X1614D01*
X1604Y735D01*
X1664D02*
X1674Y745D01*
X1694D01*
X1704Y735D01*
Y725D01*
X1694Y715D01*
X1684D01*
X1694D01*
X1704Y705D01*
Y695D01*
X1694Y685D01*
X1674D01*
X1664Y695D01*
X1544Y1153D02*
Y1213D01*
X1574D01*
X1584Y1203D01*
Y1183D01*
X1574Y1173D01*
X1544D01*
X1564D02*
X1584Y1153D01*
X1644D02*
X1604D01*
X1644Y1193D01*
Y1203D01*
X1634Y1213D01*
X1614D01*
X1604Y1203D01*
X1704Y1153D02*
X1664D01*
X1704Y1193D01*
Y1203D01*
X1694Y1213D01*
X1674D01*
X1664Y1203D01*
X1544Y1649D02*
Y1709D01*
X1574D01*
X1584Y1699D01*
Y1679D01*
X1574Y1669D01*
X1544D01*
X1564D02*
X1584Y1649D01*
X1644D02*
X1604D01*
X1644Y1689D01*
Y1699D01*
X1634Y1709D01*
X1614D01*
X1604Y1699D01*
X1664Y1649D02*
X1684D01*
X1674D01*
Y1709D01*
X1664Y1699D01*
X1936Y685D02*
Y745D01*
X1966D01*
X1976Y735D01*
Y715D01*
X1966Y705D01*
X1936D01*
X1956D02*
X1976Y685D01*
X2036D02*
X1996D01*
X2036Y725D01*
Y735D01*
X2026Y745D01*
X2006D01*
X1996Y735D01*
X2056D02*
X2066Y745D01*
X2086D01*
X2096Y735D01*
Y695D01*
X2086Y685D01*
X2066D01*
X2056Y695D01*
Y735D01*
X2831Y1153D02*
Y1213D01*
X2861D01*
X2871Y1203D01*
Y1183D01*
X2861Y1173D01*
X2831D01*
X2851D02*
X2871Y1153D01*
X2891D02*
X2911D01*
X2901D01*
Y1213D01*
X2891Y1203D01*
X2941Y1163D02*
X2951Y1153D01*
X2971D01*
X2981Y1163D01*
Y1203D01*
X2971Y1213D01*
X2951D01*
X2941Y1203D01*
Y1193D01*
X2951Y1183D01*
X2981D01*
X3267Y744D02*
Y804D01*
X3297D01*
X3307Y794D01*
Y774D01*
X3297Y764D01*
X3267D01*
X3287D02*
X3307Y744D01*
X3327D02*
X3347D01*
X3337D01*
Y804D01*
X3327Y794D01*
X3377D02*
X3387Y804D01*
X3407D01*
X3417Y794D01*
Y784D01*
X3407Y774D01*
X3417Y764D01*
Y754D01*
X3407Y744D01*
X3387D01*
X3377Y754D01*
Y764D01*
X3387Y774D01*
X3377Y784D01*
Y794D01*
X3387Y774D02*
X3407D01*
X3487Y1774D02*
Y1834D01*
X3517D01*
X3527Y1824D01*
Y1804D01*
X3517Y1794D01*
X3487D01*
X3507D02*
X3527Y1774D01*
X3547D02*
X3567D01*
X3557D01*
Y1834D01*
X3547Y1824D01*
X3597Y1834D02*
X3637D01*
Y1824D01*
X3597Y1784D01*
Y1774D01*
X1936Y1153D02*
Y1213D01*
X1966D01*
X1976Y1203D01*
Y1183D01*
X1966Y1173D01*
X1936D01*
X1956D02*
X1976Y1153D01*
X1996D02*
X2016D01*
X2006D01*
Y1213D01*
X1996Y1203D01*
X2086Y1213D02*
X2066Y1203D01*
X2046Y1183D01*
Y1163D01*
X2056Y1153D01*
X2076D01*
X2086Y1163D01*
Y1173D01*
X2076Y1183D01*
X2046D01*
X2652Y1435D02*
Y1495D01*
X2682D01*
X2692Y1485D01*
Y1465D01*
X2682Y1455D01*
X2652D01*
X2672D02*
X2692Y1435D01*
X2712D02*
X2732D01*
X2722D01*
Y1495D01*
X2712Y1485D01*
X2802Y1495D02*
X2762D01*
Y1465D01*
X2782Y1475D01*
X2792D01*
X2802Y1465D01*
Y1445D01*
X2792Y1435D01*
X2772D01*
X2762Y1445D01*
X1341Y1153D02*
Y1213D01*
X1371D01*
X1381Y1203D01*
Y1183D01*
X1371Y1173D01*
X1341D01*
X1361D02*
X1381Y1153D01*
X1401D02*
X1421D01*
X1411D01*
Y1213D01*
X1401Y1203D01*
X1481Y1153D02*
Y1213D01*
X1451Y1183D01*
X1491D01*
X681Y444D02*
Y504D01*
X711D01*
X721Y494D01*
Y474D01*
X711Y464D01*
X681D01*
X701D02*
X721Y444D01*
X741D02*
X761D01*
X751D01*
Y504D01*
X741Y494D01*
X791D02*
X801Y504D01*
X821D01*
X831Y494D01*
Y484D01*
X821Y474D01*
X811D01*
X821D01*
X831Y464D01*
Y454D01*
X821Y444D01*
X801D01*
X791Y454D01*
X1341Y1649D02*
Y1709D01*
X1371D01*
X1381Y1699D01*
Y1679D01*
X1371Y1669D01*
X1341D01*
X1361D02*
X1381Y1649D01*
X1401D02*
X1421D01*
X1411D01*
Y1709D01*
X1401Y1699D01*
X1491Y1649D02*
X1451D01*
X1491Y1689D01*
Y1699D01*
X1481Y1709D01*
X1461D01*
X1451Y1699D01*
X1742Y1649D02*
Y1709D01*
X1772D01*
X1782Y1699D01*
Y1679D01*
X1772Y1669D01*
X1742D01*
X1762D02*
X1782Y1649D01*
X1802D02*
X1822D01*
X1812D01*
Y1709D01*
X1802Y1699D01*
X1852Y1649D02*
X1872D01*
X1862D01*
Y1709D01*
X1852Y1699D01*
X2398Y1629D02*
Y1689D01*
X2428D01*
X2438Y1679D01*
Y1659D01*
X2428Y1649D01*
X2398D01*
X2418D02*
X2438Y1629D01*
X2458D02*
X2478D01*
X2468D01*
Y1689D01*
X2458Y1679D01*
X2508D02*
X2518Y1689D01*
X2538D01*
X2548Y1679D01*
Y1639D01*
X2538Y1629D01*
X2518D01*
X2508Y1639D01*
Y1679D01*
X962Y920D02*
Y980D01*
X992D01*
X1002Y970D01*
Y950D01*
X992Y940D01*
X962D01*
X982D02*
X1002Y920D01*
X1022Y930D02*
X1032Y920D01*
X1052D01*
X1062Y930D01*
Y970D01*
X1052Y980D01*
X1032D01*
X1022Y970D01*
Y960D01*
X1032Y950D01*
X1062D01*
X712Y1869D02*
Y1929D01*
X742D01*
X752Y1919D01*
Y1899D01*
X742Y1889D01*
X712D01*
X732D02*
X752Y1869D01*
X772Y1919D02*
X782Y1929D01*
X802D01*
X812Y1919D01*
Y1909D01*
X802Y1899D01*
X812Y1889D01*
Y1879D01*
X802Y1869D01*
X782D01*
X772Y1879D01*
Y1889D01*
X782Y1899D01*
X772Y1909D01*
Y1919D01*
X782Y1899D02*
X802D01*
X1742Y685D02*
Y745D01*
X1772D01*
X1782Y735D01*
Y715D01*
X1772Y705D01*
X1742D01*
X1762D02*
X1782Y685D01*
X1802Y745D02*
X1842D01*
Y735D01*
X1802Y695D01*
Y685D01*
X1341D02*
Y745D01*
X1371D01*
X1381Y735D01*
Y715D01*
X1371Y705D01*
X1341D01*
X1361D02*
X1381Y685D01*
X1441Y745D02*
X1421Y735D01*
X1401Y715D01*
Y695D01*
X1411Y685D01*
X1431D01*
X1441Y695D01*
Y705D01*
X1431Y715D01*
X1401D01*
X816Y920D02*
Y980D01*
X846D01*
X856Y970D01*
Y950D01*
X846Y940D01*
X816D01*
X836D02*
X856Y920D01*
X916Y980D02*
X876D01*
Y950D01*
X896Y960D01*
X906D01*
X916Y950D01*
Y930D01*
X906Y920D01*
X886D01*
X876Y930D01*
X1571Y1869D02*
Y1929D01*
X1601D01*
X1611Y1919D01*
Y1899D01*
X1601Y1889D01*
X1571D01*
X1591D02*
X1611Y1869D01*
X1661D02*
Y1929D01*
X1631Y1899D01*
X1671D01*
X712Y1380D02*
Y1440D01*
X742D01*
X752Y1430D01*
Y1410D01*
X742Y1400D01*
X712D01*
X732D02*
X752Y1380D01*
X772Y1430D02*
X782Y1440D01*
X802D01*
X812Y1430D01*
Y1420D01*
X802Y1410D01*
X792D01*
X802D01*
X812Y1400D01*
Y1390D01*
X802Y1380D01*
X782D01*
X772Y1390D01*
X681Y920D02*
Y980D01*
X711D01*
X721Y970D01*
Y950D01*
X711Y940D01*
X681D01*
X701D02*
X721Y920D01*
X781D02*
X741D01*
X781Y960D01*
Y970D01*
X771Y980D01*
X751D01*
X741Y970D01*
X551Y444D02*
Y504D01*
X581D01*
X591Y494D01*
Y474D01*
X581Y464D01*
X551D01*
X571D02*
X591Y444D01*
X611D02*
X631D01*
X621D01*
Y504D01*
X611Y494D01*
X3305Y197D02*
Y257D01*
X3335D01*
X3345Y247D01*
Y227D01*
X3335Y217D01*
X3305D01*
X3365Y257D02*
X3405D01*
Y247D01*
X3365Y207D01*
Y197D01*
X2691Y1869D02*
Y1929D01*
X2721D01*
X2731Y1919D01*
Y1899D01*
X2721Y1889D01*
X2691D01*
X2791Y1929D02*
X2771Y1919D01*
X2751Y1899D01*
Y1879D01*
X2761Y1869D01*
X2781D01*
X2791Y1879D01*
Y1889D01*
X2781Y1899D01*
X2751D01*
X2398Y1869D02*
Y1929D01*
X2428D01*
X2438Y1919D01*
Y1899D01*
X2428Y1889D01*
X2398D01*
X2498Y1929D02*
X2458D01*
Y1899D01*
X2478Y1909D01*
X2488D01*
X2498Y1899D01*
Y1879D01*
X2488Y1869D01*
X2468D01*
X2458Y1879D01*
X1341Y211D02*
Y271D01*
X1371D01*
X1381Y261D01*
Y241D01*
X1371Y231D01*
X1341D01*
X1431Y211D02*
Y271D01*
X1401Y241D01*
X1441D01*
X386Y411D02*
Y471D01*
X416D01*
X426Y461D01*
Y441D01*
X416Y431D01*
X386D01*
X446Y461D02*
X456Y471D01*
X476D01*
X486Y461D01*
Y451D01*
X476Y441D01*
X466D01*
X476D01*
X486Y431D01*
Y421D01*
X476Y411D01*
X456D01*
X446Y421D01*
X1316Y1869D02*
Y1929D01*
X1346D01*
X1356Y1919D01*
Y1899D01*
X1346Y1889D01*
X1316D01*
X1416Y1869D02*
X1376D01*
X1416Y1909D01*
Y1919D01*
X1406Y1929D01*
X1386D01*
X1376Y1919D01*
X58Y1664D02*
Y1724D01*
X88D01*
X98Y1714D01*
Y1694D01*
X88Y1684D01*
X58D01*
X118Y1664D02*
X138D01*
X128D01*
Y1724D01*
X118Y1714D01*
X328Y1919D02*
X318Y1929D01*
X298D01*
X288Y1919D01*
Y1879D01*
X298Y1869D01*
X318D01*
X328Y1879D01*
X348Y1869D02*
X368D01*
X358D01*
Y1929D01*
X348Y1919D01*
X428Y1869D02*
Y1929D01*
X398Y1899D01*
X438D01*
X2603Y1326D02*
X2593Y1336D01*
X2573D01*
X2563Y1326D01*
Y1286D01*
X2573Y1276D01*
X2593D01*
X2603Y1286D01*
X2623Y1276D02*
X2643D01*
X2633D01*
Y1336D01*
X2623Y1326D01*
X2673D02*
X2683Y1336D01*
X2703D01*
X2713Y1326D01*
Y1316D01*
X2703Y1306D01*
X2693D01*
X2703D01*
X2713Y1296D01*
Y1286D01*
X2703Y1276D01*
X2683D01*
X2673Y1286D01*
X3728Y1003D02*
X3718Y1013D01*
X3698D01*
X3688Y1003D01*
Y963D01*
X3698Y953D01*
X3718D01*
X3728Y963D01*
X3748Y953D02*
X3768D01*
X3758D01*
Y1013D01*
X3748Y1003D01*
X3838Y953D02*
X3798D01*
X3838Y993D01*
Y1003D01*
X3828Y1013D01*
X3808D01*
X3798Y1003D01*
X3059Y1919D02*
X3049Y1929D01*
X3029D01*
X3019Y1919D01*
Y1879D01*
X3029Y1869D01*
X3049D01*
X3059Y1879D01*
X3079Y1869D02*
X3099D01*
X3089D01*
Y1929D01*
X3079Y1919D01*
X3129Y1869D02*
X3149D01*
X3139D01*
Y1929D01*
X3129Y1919D01*
X3059Y1326D02*
X3049Y1336D01*
X3029D01*
X3019Y1326D01*
Y1286D01*
X3029Y1276D01*
X3049D01*
X3059Y1286D01*
X3079Y1276D02*
X3099D01*
X3089D01*
Y1336D01*
X3079Y1326D01*
X3129D02*
X3139Y1336D01*
X3159D01*
X3169Y1326D01*
Y1286D01*
X3159Y1276D01*
X3139D01*
X3129Y1286D01*
Y1326D01*
X537Y1351D02*
X527Y1361D01*
X507D01*
X497Y1351D01*
Y1311D01*
X507Y1301D01*
X527D01*
X537Y1311D01*
X557D02*
X567Y1301D01*
X587D01*
X597Y1311D01*
Y1351D01*
X587Y1361D01*
X567D01*
X557Y1351D01*
Y1341D01*
X567Y1331D01*
X597D01*
X2390Y1326D02*
X2380Y1336D01*
X2360D01*
X2350Y1326D01*
Y1286D01*
X2360Y1276D01*
X2380D01*
X2390Y1286D01*
X2410Y1326D02*
X2420Y1336D01*
X2440D01*
X2450Y1326D01*
Y1316D01*
X2440Y1306D01*
X2450Y1296D01*
Y1286D01*
X2440Y1276D01*
X2420D01*
X2410Y1286D01*
Y1296D01*
X2420Y1306D01*
X2410Y1316D01*
Y1326D01*
X2420Y1306D02*
X2440D01*
X2007Y1919D02*
X1997Y1929D01*
X1977D01*
X1967Y1919D01*
Y1879D01*
X1977Y1869D01*
X1997D01*
X2007Y1879D01*
X2027Y1929D02*
X2067D01*
Y1919D01*
X2027Y1879D01*
Y1869D01*
X2210Y1919D02*
X2200Y1929D01*
X2180D01*
X2170Y1919D01*
Y1879D01*
X2180Y1869D01*
X2200D01*
X2210Y1879D01*
X2270Y1929D02*
X2250Y1919D01*
X2230Y1899D01*
Y1879D01*
X2240Y1869D01*
X2260D01*
X2270Y1879D01*
Y1889D01*
X2260Y1899D01*
X2230D01*
X328Y1351D02*
X318Y1361D01*
X298D01*
X288Y1351D01*
Y1311D01*
X298Y1301D01*
X318D01*
X328Y1311D01*
X388Y1361D02*
X348D01*
Y1331D01*
X368Y1341D01*
X378D01*
X388Y1331D01*
Y1311D01*
X378Y1301D01*
X358D01*
X348Y1311D01*
X2177Y1326D02*
X2167Y1336D01*
X2147D01*
X2137Y1326D01*
Y1286D01*
X2147Y1276D01*
X2167D01*
X2177Y1286D01*
X2227Y1276D02*
Y1336D01*
X2197Y1306D01*
X2237D01*
X537Y1919D02*
X527Y1929D01*
X507D01*
X497Y1919D01*
Y1879D01*
X507Y1869D01*
X527D01*
X537Y1879D01*
X557Y1919D02*
X567Y1929D01*
X587D01*
X597Y1919D01*
Y1909D01*
X587Y1899D01*
X577D01*
X587D01*
X597Y1889D01*
Y1879D01*
X587Y1869D01*
X567D01*
X557Y1879D01*
X3728Y1684D02*
X3718Y1694D01*
X3698D01*
X3688Y1684D01*
Y1644D01*
X3698Y1634D01*
X3718D01*
X3728Y1644D01*
X3788Y1634D02*
X3748D01*
X3788Y1674D01*
Y1684D01*
X3778Y1694D01*
X3758D01*
X3748Y1684D01*
X130Y1351D02*
X120Y1361D01*
X100D01*
X90Y1351D01*
Y1311D01*
X100Y1301D01*
X120D01*
X130Y1311D01*
X150Y1301D02*
X170D01*
X160D01*
Y1361D01*
X150Y1351D01*
M02*
